<svg width="633" height="633" viewBox="0 0 633 633" fill="none" xmlns="http://www.w3.org/2000/svg">
<path d="M587.585 0H45.4709C20.3777 0 0 20.3777 0 45.4709V587.529C0 612.622 20.3777 633 45.4709 633H587.529C612.622 633 633 612.622 633 587.529V45.4709C633 20.3777 612.622 0 587.529 0H587.585ZM555.138 186.318H283.211V186.655C270.412 187.89 237.74 193.504 212.366 218.934C194.178 237.122 179.75 265.415 178.852 309.483C178.403 333.453 183.624 357.368 195.525 378.194C205.461 395.597 221.292 414.964 245.767 427.09C259.521 433.882 274.341 437.251 289.217 437.531C311.953 437.924 334.857 431.019 354.112 417.715L435.23 361.69L298.648 259.24H555.194V539.195H466.779V456.393C466.779 456.393 406.993 523.252 348.498 541.609C282.593 562.267 96.7239 515.562 79.3776 339.965C65.5679 199.455 155.612 129.676 220.113 103.966C239.592 96.2187 260.419 92.5698 281.414 92.4014L555.25 90.1559V186.431L555.138 186.318Z" fill="currentColor"/>
</svg>
