<svg width="407" height="407" viewBox="0 0 407 407" fill="none" xmlns="http://www.w3.org/2000/svg">
<rect x="35.1094" y="40.3086" width="353.687" height="345.885" fill="white"/>
<path d="M377.8 0H29.2364C13.1023 0 0 13.1023 0 29.2364V377.764C0 393.898 13.1023 407 29.2364 407H377.764C393.898 407 407 393.898 407 377.764V29.2364C407 13.1023 393.898 0 377.764 0H377.8ZM356.937 119.797H182.096V120.014C173.867 120.808 152.86 124.417 136.545 140.768C124.85 152.463 115.574 170.654 114.997 198.988C114.708 214.4 118.065 229.777 125.717 243.168C132.105 254.357 142.284 266.81 158.021 274.606C166.864 278.973 176.393 281.139 185.958 281.319C200.576 281.572 215.303 277.133 227.683 268.578L279.84 232.556L192.022 166.684H356.973V346.686H300.125V293.447C300.125 293.447 261.684 336.436 224.074 348.238C181.699 361.521 62.1906 331.491 51.0374 218.587C42.1582 128.243 100.054 83.378 141.526 66.8468C154.051 61.8657 167.442 59.5196 180.941 59.4113L357.009 57.9675V119.869L356.937 119.797Z" fill="#0075F4"/>
</svg>
