<svg width="800" height="800" viewBox="0 0 800 800" fill="none" xmlns="http://www.w3.org/2000/svg">
<path fill-rule="evenodd" clip-rule="evenodd" d="M106.09 408.373C100.969 409.013 92.0071 410.933 86.8859 415.412C71.5225 428.852 80.4845 452.531 111.851 452.531C129.775 452.531 147.699 441.012 161.783 423.092C141.298 413.492 124.654 406.453 106.09 408.373Z" fill="#2BA6DF"/>
<path fill-rule="evenodd" clip-rule="evenodd" d="M220.836 424.849C249.642 434.449 256.044 435.089 256.044 435.089V332.692C256.044 315.413 241.961 301.333 224.037 301.333H89.6067C72.3229 301.333 57.5996 315.413 57.5996 332.692V467.088C57.5996 484.368 71.6827 498.447 89.6067 498.447H224.037C241.32 498.447 256.044 484.368 256.044 467.088V465.808C256.044 465.808 204.832 444.689 178.586 431.889C161.303 453.009 138.898 466.448 115.212 466.448C75.5236 466.448 62.0806 431.889 81.2849 409.49C85.1257 404.37 92.1673 399.89 103.05 397.33C119.693 393.49 146.579 399.89 171.545 408.21C176.026 399.89 179.867 390.93 182.427 381.331H104.97V373.651H144.659V358.291H96.0081V350.612H144.659V330.772C144.659 330.772 144.659 327.572 147.86 327.572H167.064V351.252H215.075V358.291H167.064V372.371H206.113C202.272 387.731 196.51 401.81 189.469 413.97C202.272 418.45 213.154 422.29 220.836 424.849Z" fill="#2BA6DF"/>
<path fill-rule="evenodd" clip-rule="evenodd" d="M347.402 347.853L389.651 439.37H367.246L355.724 415.051H321.156L309.633 439.37H294.91L337.8 350.413C337.8 350.413 339.08 347.853 341.641 347.853C343.561 347.853 347.402 347.853 347.402 347.853ZM324.997 406.731H351.883L338.44 377.932L324.997 406.731ZM418.275 440.099H397.79V353.061C397.79 350.501 399.07 349.221 402.271 349.221H418.275V440.099ZM456.683 439.503H436.199V373.585C436.199 371.025 437.479 369.745 440.68 369.745H456.683V439.503ZM481.73 371.113H495.173V377.513C497.734 375.593 500.294 373.673 503.495 373.033C506.696 371.753 509.897 371.113 514.378 371.113C518.859 371.113 522.699 371.753 525.9 373.673C529.741 375.593 532.302 377.513 534.862 380.713C537.423 383.913 539.343 387.113 540.623 390.952C541.904 394.792 542.544 398.632 542.544 403.112C542.544 408.872 541.904 413.992 539.983 418.472C538.063 422.952 536.142 427.431 532.942 430.631C529.741 433.831 526.54 437.031 522.059 438.951C517.578 440.871 513.097 441.511 507.976 441.511H500.935C499.014 441.511 497.094 440.871 495.173 440.231V463.27H474.689V379.433C474.049 371.113 477.249 371.113 481.73 371.113ZM495.173 421.032C495.173 422.952 495.173 424.232 495.813 425.511C496.454 426.791 497.094 428.071 498.374 429.351C499.654 430.631 500.935 431.271 502.215 431.911C503.495 432.551 505.416 432.551 507.336 432.551C509.256 432.551 510.537 431.911 512.457 430.631C513.737 429.351 515.658 428.071 516.298 425.511C516.938 422.952 518.218 421.032 518.859 417.832C519.499 414.632 520.139 412.072 520.139 408.232C520.139 403.752 520.139 399.912 519.499 396.712C518.859 393.512 518.218 390.952 516.938 388.393C515.658 386.473 514.378 384.553 513.097 383.273C511.817 381.993 509.897 381.353 507.976 381.353C506.696 381.353 505.416 381.353 504.135 381.993C502.855 382.633 501.575 383.273 500.935 383.913C499.654 384.553 499.014 385.833 497.734 386.473C496.454 387.753 495.813 388.393 495.173 389.673V421.032ZM581.602 371.113C586.724 371.113 590.564 371.753 594.405 372.393C597.606 373.033 600.807 374.313 603.367 376.233C605.928 378.153 607.208 380.073 608.488 381.993C609.769 384.553 610.409 387.113 610.409 389.673V440.231H589.924V435.111C588.644 436.391 587.364 437.031 586.724 437.671C585.443 438.311 584.163 438.951 582.883 439.591C581.602 440.231 580.322 440.871 578.402 440.871C576.481 441.511 574.561 441.511 572.64 441.511C569.44 441.511 566.879 440.871 564.319 440.231C561.758 439.591 559.838 438.311 557.917 436.391C555.997 435.111 554.716 433.191 554.076 430.631C553.436 428.711 552.796 426.151 552.796 423.592C552.796 421.032 553.436 418.472 554.076 416.552C554.716 414.632 556.637 412.712 557.917 410.792C559.197 408.872 561.758 407.592 563.678 406.312C566.239 405.032 568.159 403.752 571.36 402.472C573.921 401.192 576.481 400.552 579.682 399.272C582.243 398.632 585.443 397.352 588.004 396.712L590.564 396.072V389.033C590.564 387.113 590.564 385.193 589.924 383.273C589.284 381.993 588.644 380.713 588.004 379.433C587.364 378.793 586.083 377.513 585.443 377.513C584.163 376.873 582.883 376.873 581.602 376.873C581.602 376.873 570.72 376.873 561.118 385.193L556.637 378.153C554.716 379.433 566.239 371.113 581.602 371.113ZM588.644 405.032C586.724 405.672 584.803 406.952 582.883 408.232C580.962 409.512 579.042 410.792 577.121 412.072C575.201 413.352 573.921 414.632 573.281 416.552C572 417.832 572 419.752 572 421.032C572 422.312 572 423.592 572.64 424.872C573.281 426.151 573.281 426.791 573.921 428.071C574.561 429.351 575.201 429.351 575.841 429.991C576.481 430.631 577.121 430.631 578.402 430.631C580.322 430.631 581.602 429.991 583.523 429.351C585.443 428.071 587.364 426.791 589.284 425.511V405.032H588.644ZM638.301 462.63H624.858L624.218 450.471C624.218 450.471 640.861 451.111 645.982 444.711C647.903 442.151 649.183 435.111 649.183 435.111L615.896 371.113H638.301L659.425 412.712L677.99 371.113H692.713L658.785 446.631C657.505 449.191 652.384 462.63 638.301 462.63Z" fill="#3F3A39"/>
<path d="M446.51 360C452.166 360 456.752 355.941 456.752 350.933C456.752 345.926 452.166 341.867 446.51 341.867C440.853 341.867 436.268 345.926 436.268 350.933C436.268 355.941 440.853 360 446.51 360Z" fill="#2BA6DF"/>
<path fill-rule="evenodd" clip-rule="evenodd" d="M713.471 317.664H706.43V316.384H721.793V317.664H714.752V337.503H712.831V317.664H713.471Z" fill="#3F3A39"/>
<path fill-rule="evenodd" clip-rule="evenodd" d="M724.902 316.384H727.462L731.943 328.543L733.864 333.023C734.504 331.743 735.144 329.823 735.784 328.543L740.265 316.384H742.826V338.143H740.265V324.704V318.944L738.345 324.064L733.864 336.863H732.584L728.103 324.064L726.182 318.944V324.704V338.143H724.262V316.384H724.902Z" fill="#3F3A39"/>
</svg>
