<svg width="1152" height="1152" viewBox="0 0 1152 1152" fill="none" xmlns="http://www.w3.org/2000/svg">
<g clip-path="url(#clip0_283_891)">
<path d="M0 1152H1152V-3.43323e-05H0V1152Z" fill="#006FCF"/>
<path d="M417.316 969.714L872.828 970.681L944.367 890.87L1016.42 970.379H1152V853.937L1067.08 762.361L1152 671.615V557.594L417.316 556.934V969.714Z" fill="white"/>
<path fill-rule="evenodd" clip-rule="evenodd" d="M466.389 924.46V602.36H739.498V676.56H554.813V726.927H735.094V799.896H554.813V849.368H739.498V924.459L466.389 924.46Z" fill="#006FCF"/>
<path d="M1040.05 602.364L947.446 704.455L855.103 602.364H738.131L889.255 763.227L738.134 924.46H851.924L944.943 821.347L1038.93 924.46H1152V919.887L1004.09 763.227L1152 604.901V602.364H1040.05Z" fill="#006FCF"/>
<path d="M985.047 190.554L947.217 296.375L909.514 190.554H690.881V331.794L628.677 190.554H451.581L269.695 603.335H1152V190.554H985.047Z" fill="white"/>
<path fill-rule="evenodd" clip-rule="evenodd" d="M497.394 420.556L540.254 318.107L583.085 420.556H497.394ZM485.111 235.4L342.195 557.227H440.219L467.179 492.784H613.279L640.222 557.227H740.682L598.358 235.4H485.111Z" fill="#006FCF"/>
<path d="M739.344 557.172L826.006 557.173V336.11L908.225 557.173H986.116L1066.66 336.861V557.924L1152 557.173V235.348H1019.39L948.028 433.673L877.133 235.823L739.344 235.346V557.172Z" fill="#006FCF"/>
</g>
<defs>
<clipPath id="clip0_283_891">
<rect width="1152" height="1152" fill="white"/>
</clipPath>
</defs>
</svg>
