<svg width="800" height="800" viewBox="0 0 800 800" fill="none" xmlns="http://www.w3.org/2000/svg">
<g clip-path="url(#clip0_283_920)">
<path d="M151.622 273.649C160.932 261.679 167.582 245.719 165.587 229.759C151.622 230.424 134.997 239.069 125.022 250.374C116.377 260.349 108.396 276.974 110.391 292.269C126.352 294.264 141.647 285.619 151.622 273.649ZM165.587 296.259C142.977 294.929 123.692 308.894 113.051 308.894C102.411 308.894 85.7863 296.924 67.8312 296.924C44.5561 297.589 23.2759 310.224 11.3059 331.504C-12.6343 373.4 4.65582 435.245 28.596 469.16C39.901 485.785 53.8661 504.406 71.8212 503.741C89.1113 503.076 95.7614 492.435 116.377 492.435C136.992 492.435 142.977 503.74 161.597 503.075C180.217 502.41 192.187 486.45 203.492 469.16C216.792 449.875 222.112 431.255 222.112 430.59C221.447 429.925 185.537 416.625 185.537 375.395C184.872 340.814 213.467 324.189 214.797 323.524C199.502 299.584 174.232 296.924 165.587 296.259Z" fill="black"/>
<path d="M361.097 249.044C410.307 249.044 444.222 282.959 444.222 331.504C444.222 380.715 409.642 414.63 359.767 414.63H305.901V500.415H266.666V249.044H361.097ZM305.901 382.045H350.457C384.372 382.045 403.657 363.425 403.657 332.169C403.657 300.249 384.372 282.294 350.457 282.294H305.236V382.045H305.901ZM454.197 449.21C454.197 417.29 478.802 397.34 522.693 394.68L573.233 392.02V378.055C573.233 357.44 559.268 345.47 536.658 345.47C514.713 345.47 501.413 356.11 498.087 372.07H462.177C464.172 338.82 492.767 314.214 537.988 314.214C582.543 314.214 611.138 337.489 611.138 374.73V501.08H575.228V471.155H574.563C563.923 491.77 540.648 504.406 516.708 504.406C479.467 504.406 454.197 481.795 454.197 449.21ZM573.233 432.585V417.955L528.013 420.615C505.403 421.945 492.767 431.92 492.767 447.88C492.767 463.84 506.068 474.48 526.018 474.48C552.618 474.48 573.233 456.525 573.233 432.585ZM644.388 568.911V538.321C647.048 538.986 653.698 538.986 656.358 538.986C673.649 538.986 682.959 531.671 688.944 513.051C688.944 512.386 692.269 501.746 692.269 501.746L625.768 318.204H666.334L712.884 467.83H713.549L760.099 318.204H799.999L731.504 511.721C715.544 556.276 697.589 570.241 659.683 570.241C657.023 569.576 647.713 569.576 644.388 568.911Z" fill="black"/>
</g>
<defs>
<clipPath id="clip0_283_920">
<rect width="800" height="800" fill="white"/>
</clipPath>
</defs>
</svg>
