<svg width="800" height="800" viewBox="0 0 800 800" fill="none" xmlns="http://www.w3.org/2000/svg">
<path d="M800 582.557C800 651.016 744.254 706.762 675.795 706.762H0V214.83C0 146.371 55.7457 90.625 124.205 90.625H800V582.557Z" fill="white"/>
<path d="M579.951 456.395H631.296C632.763 456.395 636.186 455.906 637.653 455.906C647.433 453.95 655.746 445.148 655.746 432.923C655.746 421.187 647.433 412.385 637.653 409.94C636.186 409.451 633.252 409.451 631.296 409.451H579.951V456.395Z" fill="url(#paint0_linear_283_883)"/>
<path d="M625.428 132.19C576.528 132.19 536.43 171.799 536.43 221.188V313.608H662.103C665.037 313.608 668.46 313.608 670.905 314.097C699.267 315.564 720.293 330.234 720.293 355.662C720.293 375.711 706.113 392.826 679.707 396.249V397.227C708.558 399.183 730.562 415.32 730.562 440.258C730.562 467.153 706.113 484.757 673.839 484.757H535.941V665.686H666.504C715.404 665.686 755.501 626.077 755.501 576.689V132.19H625.428Z" fill="url(#paint1_linear_283_883)"/>
<path d="M649.389 361.53C649.389 349.794 641.076 341.97 631.296 340.503C630.318 340.503 627.873 340.014 626.406 340.014H579.951V383.045H626.406C627.873 383.045 630.807 383.045 631.296 382.556C641.076 381.089 649.389 373.266 649.389 361.53Z" fill="url(#paint2_linear_283_883)"/>
<path d="M133.496 132.19C84.5966 132.19 44.4988 171.799 44.4988 221.188V440.747C69.4376 452.972 95.3545 460.796 121.271 460.796C152.078 460.796 168.704 442.214 168.704 416.787V313.119H244.988V416.298C244.988 456.395 220.049 489.158 135.452 489.158C84.1076 489.158 44.0098 477.911 44.0098 477.911V665.197H174.572C223.472 665.197 263.57 625.588 263.57 576.2V132.19H133.496Z" fill="url(#paint3_linear_283_883)"/>
<path d="M379.462 132.19C330.563 132.19 290.465 171.799 290.465 221.188V337.569C312.959 318.498 352.079 306.273 415.159 309.207C448.9 310.674 485.086 319.965 485.086 319.965V357.618C466.993 348.327 445.477 340.014 417.604 338.058C369.682 334.635 340.832 358.107 340.832 399.183C340.832 440.747 369.682 464.219 417.604 460.307C445.477 458.351 466.993 449.549 485.086 440.747V478.4C485.086 478.4 449.389 487.691 415.159 489.158C352.079 492.092 312.959 479.867 290.465 460.796V666.175H421.027C469.927 666.175 510.025 626.567 510.025 577.178V132.19H379.462Z" fill="url(#paint4_linear_283_883)"/>
<defs>
<linearGradient id="paint0_linear_283_883" x1="536.349" y1="432.981" x2="756.091" y2="432.981" gradientUnits="userSpaceOnUse">
<stop stop-color="#007940"/>
<stop offset="0.2285" stop-color="#00873F"/>
<stop offset="0.7433" stop-color="#40A737"/>
<stop offset="1" stop-color="#5CB531"/>
</linearGradient>
<linearGradient id="paint1_linear_283_883" x1="536.342" y1="398.725" x2="756.102" y2="398.725" gradientUnits="userSpaceOnUse">
<stop stop-color="#007940"/>
<stop offset="0.2285" stop-color="#00873F"/>
<stop offset="0.7433" stop-color="#40A737"/>
<stop offset="1" stop-color="#5CB531"/>
</linearGradient>
<linearGradient id="paint2_linear_283_883" x1="536.343" y1="361.468" x2="756.095" y2="361.468" gradientUnits="userSpaceOnUse">
<stop stop-color="#007940"/>
<stop offset="0.2285" stop-color="#00873F"/>
<stop offset="0.7433" stop-color="#40A737"/>
<stop offset="1" stop-color="#5CB531"/>
</linearGradient>
<linearGradient id="paint3_linear_283_883" x1="44.3952" y1="398.725" x2="267.54" y2="398.725" gradientUnits="userSpaceOnUse">
<stop stop-color="#1F286F"/>
<stop offset="0.4751" stop-color="#004E94"/>
<stop offset="0.8261" stop-color="#0066B1"/>
<stop offset="1" stop-color="#006FBC"/>
</linearGradient>
<linearGradient id="paint4_linear_283_883" x1="289.2" y1="398.725" x2="505.926" y2="398.725" gradientUnits="userSpaceOnUse">
<stop stop-color="#6C2C2F"/>
<stop offset="0.1735" stop-color="#882730"/>
<stop offset="0.5731" stop-color="#BE1833"/>
<stop offset="0.8585" stop-color="#DC0436"/>
<stop offset="1" stop-color="#E60039"/>
</linearGradient>
</defs>
</svg>
