<svg width="800" height="800" viewBox="0 0 800 800" fill="none" xmlns="http://www.w3.org/2000/svg">
<path d="M172.696 317.285C164.081 311.363 152.84 308.395 138.972 308.395H85.2842C81.033 308.395 78.6842 310.521 78.2381 314.769L56.4278 451.675C56.2012 453.02 56.5376 454.249 57.434 455.367C58.3253 456.487 59.4463 457.044 60.7889 457.044H86.2904C90.7632 457.044 93.2217 454.923 93.673 450.67L99.7119 413.761C99.9324 411.972 100.719 410.518 102.062 409.398C103.403 408.28 105.081 407.549 107.094 407.213C109.108 406.881 111.006 406.714 112.799 406.714C114.587 406.714 116.711 406.827 119.176 407.049C121.634 407.273 123.201 407.382 123.873 407.382C143.11 407.382 158.209 401.961 169.172 391.109C180.13 380.261 185.616 365.219 185.616 345.977C185.616 332.78 181.306 323.217 172.696 317.285ZM145.013 358.393C143.891 366.224 140.987 371.366 136.289 373.828C131.591 376.292 124.88 377.518 116.157 377.518L105.083 377.853L110.789 341.949C111.234 339.49 112.687 338.26 115.15 338.26H121.527C130.471 338.26 136.962 339.549 140.989 342.117C145.013 344.691 146.356 350.118 145.013 358.393Z" fill="#003087"/>
<path d="M739.275 308.395H714.446C711.98 308.395 710.527 309.626 710.084 312.087L688.272 451.676L687.936 452.347C687.936 453.471 688.384 454.528 689.28 455.536C690.17 456.541 691.293 457.044 692.634 457.044H714.783C719.027 457.044 721.377 454.923 721.83 450.67L743.64 313.426V313.092C743.639 309.961 742.181 308.395 739.275 308.395Z" fill="#009CDE"/>
<path d="M439.292 362.417C439.292 361.301 438.841 360.236 437.952 359.231C437.055 358.225 436.046 357.719 434.932 357.719H409.094C406.628 357.719 404.616 358.843 403.054 361.074L367.485 413.423L352.721 363.089C351.598 359.513 349.14 357.719 345.34 357.719H320.17C319.048 357.719 318.042 358.224 317.153 359.231C316.256 360.236 315.811 361.302 315.811 362.417C315.811 362.868 317.992 369.464 322.353 382.215C326.714 394.968 331.412 408.726 336.445 423.492C341.479 438.254 344.106 446.087 344.331 446.977C325.986 472.033 316.817 485.456 316.817 487.242C316.817 490.153 318.269 491.605 321.179 491.605H347.017C349.476 491.605 351.489 490.49 353.057 488.252L438.623 364.765C439.068 364.321 439.292 363.542 439.292 362.417Z" fill="#003087"/>
<path d="M679.883 357.719H654.38C651.246 357.719 649.35 361.412 648.679 368.794C642.857 359.85 632.237 355.371 616.799 355.371C600.693 355.371 586.988 361.412 575.695 373.492C564.396 385.572 558.75 399.78 558.75 416.108C558.75 429.309 562.607 439.822 570.324 447.649C578.042 455.483 588.388 459.393 601.366 459.393C607.852 459.393 614.451 458.049 621.161 455.367C627.873 452.682 633.125 449.105 636.935 444.629C636.935 444.854 636.707 445.859 636.263 447.648C635.812 449.44 635.591 450.785 635.591 451.674C635.591 455.258 637.041 457.042 639.954 457.042H663.109C667.353 457.042 669.818 454.921 670.487 450.668L684.246 363.089C684.467 361.746 684.132 360.517 683.239 359.397C682.342 358.28 681.226 357.719 679.883 357.719ZM636.095 423.825C630.39 429.418 623.512 432.213 615.459 432.213C608.968 432.213 603.716 430.426 599.687 426.844C595.66 423.271 593.646 418.349 593.646 412.08C593.646 403.809 596.442 396.813 602.036 391.109C607.623 385.404 614.563 382.552 622.841 382.552C629.099 382.552 634.301 384.398 638.443 388.088C642.579 391.78 644.653 396.87 644.653 403.358C644.652 411.411 641.798 418.235 636.095 423.825Z" fill="#009CDE"/>
<path d="M298.697 357.719H273.194C270.058 357.719 268.161 361.412 267.489 368.794C261.449 359.85 250.822 355.371 235.611 355.371C219.504 355.371 205.801 361.412 194.505 373.492C183.207 385.572 177.561 399.78 177.561 416.108C177.561 429.309 181.42 439.822 189.138 447.649C196.856 455.483 207.2 459.393 220.176 459.393C226.436 459.393 232.928 458.049 239.637 455.367C246.348 452.682 251.717 449.105 255.744 444.629C254.847 447.313 254.402 449.663 254.402 451.674C254.402 455.258 255.855 457.042 258.764 457.042H281.916C286.164 457.042 288.627 454.921 289.299 450.668L303.056 363.089C303.276 361.746 302.942 360.517 302.05 359.397C301.154 358.28 300.036 357.719 298.697 357.719ZM254.906 423.991C249.201 429.478 242.207 432.213 233.935 432.213C227.444 432.213 222.243 430.426 218.331 426.844C214.414 423.271 212.458 418.349 212.458 412.08C212.458 403.809 215.253 396.813 220.848 391.109C226.436 385.404 233.372 382.552 241.652 382.552C247.912 382.552 253.113 384.398 257.256 388.088C261.391 391.78 263.463 396.87 263.463 403.358C263.463 411.635 260.611 418.516 254.906 423.991Z" fill="#003087"/>
<path d="M553.883 317.285C545.27 311.363 534.031 308.395 520.161 308.395H466.808C462.331 308.395 459.87 310.521 459.426 314.769L437.615 451.675C437.389 453.02 437.724 454.249 438.622 455.367C439.51 456.487 440.634 457.044 441.976 457.044H469.49C472.174 457.044 473.963 455.592 474.86 452.683L480.901 413.761C481.122 411.972 481.906 410.518 483.249 409.398C484.592 408.28 486.268 407.549 488.283 407.213C490.295 406.881 492.194 406.714 493.988 406.714C495.775 406.714 497.9 406.827 500.361 407.049C502.822 407.273 504.392 407.382 505.059 407.382C524.299 407.382 539.396 401.961 550.359 391.109C561.32 380.261 566.801 365.219 566.801 345.977C566.802 332.78 562.493 323.217 553.883 317.285ZM519.489 372.485C514.567 375.84 507.185 377.517 497.344 377.517L486.605 377.852L492.311 341.948C492.754 339.489 494.207 338.259 496.672 338.259H502.71C507.63 338.259 511.545 338.482 514.458 338.928C517.361 339.379 520.161 340.773 522.845 343.122C525.531 345.471 526.872 348.884 526.872 353.357C526.872 362.754 524.408 369.127 519.489 372.485Z" fill="#009CDE"/>
</svg>
