<svg width="800" height="800" viewBox="0 0 800 800" fill="none" xmlns="http://www.w3.org/2000/svg">
<path fill-rule="evenodd" clip-rule="evenodd" d="M685.109 207.011L532.651 206.972H532.611C532.494 206.972 532.378 206.993 532.263 206.993C511.318 207.627 485.233 224.222 480.482 244.685L408.383 559.843C403.633 580.497 416.557 597.303 437.35 597.612H597.513C617.989 596.611 637.885 580.207 642.556 559.977L714.656 244.817C719.484 223.953 706.247 207.011 685.109 207.011Z" fill="#01798A"/>
<path fill-rule="evenodd" clip-rule="evenodd" d="M408.385 559.841L480.483 244.683C485.235 224.22 511.32 207.625 532.264 206.991L471.647 206.953L362.433 206.932C341.431 207.356 315.006 224.068 310.257 244.683L238.137 559.841C233.368 580.495 246.312 597.301 267.091 597.611H437.351C416.559 597.301 403.633 580.495 408.385 559.841Z" fill="#024381"/>
<path fill-rule="evenodd" clip-rule="evenodd" d="M238.136 559.841L310.256 244.684C315.005 224.068 341.429 207.357 362.432 206.933L222.523 206.897C201.403 206.897 174.325 223.799 169.498 244.684L97.3784 559.841C96.9396 561.766 96.696 563.65 96.5508 565.494V571.341C97.9626 586.397 109.602 597.36 126.333 597.611H267.09C246.311 597.302 233.367 580.495 238.136 559.841Z" fill="#DD0228"/>
<path fill-rule="evenodd" clip-rule="evenodd" d="M365.381 436.578H368.029C370.463 436.578 372.1 435.771 372.867 434.174L379.747 424.001H398.172L394.329 430.692H416.421L413.618 440.943H387.332C384.304 445.443 380.577 447.559 376.096 447.308H362.403L365.381 436.578ZM362.356 451.269H410.756L407.671 462.406H388.206L385.236 473.153H404.177L401.092 484.288H382.151L377.751 500.171C376.661 502.825 378.094 504.019 382.025 503.748H397.461L394.602 514.095H364.965C359.347 514.095 357.42 510.921 359.183 504.557L364.807 484.288H352.701L355.776 473.153H367.885L370.853 462.406H359.279L362.356 451.269ZM439.607 423.926L438.845 430.444C438.845 430.444 447.974 423.673 456.267 423.673H486.907L475.189 465.575C474.217 470.366 470.05 472.748 462.692 472.748H427.963L419.828 502.171C419.359 503.748 420.023 504.557 421.774 504.557H428.607L426.096 513.69H408.723C402.056 513.69 399.282 511.709 400.383 507.73L423.369 423.926H439.607ZM465.554 435.771H438.206L434.934 447.077C434.934 447.077 439.489 443.829 447.1 443.713C454.69 443.596 463.354 443.713 463.354 443.713L465.554 435.771ZM455.646 462C457.668 462.27 458.799 461.48 458.936 459.615L460.609 453.655H433.22L430.922 462H455.646ZM437.172 475.538H452.959L452.665 482.287H456.869C458.992 482.287 460.046 481.615 460.046 480.288L461.29 475.923H474.412L472.658 482.287C471.177 487.594 467.247 490.364 460.863 490.634H452.453L452.414 502.171C452.26 504.019 453.951 504.961 457.435 504.961H465.338L462.788 514.095H443.829C438.515 514.345 435.909 511.844 435.963 506.538L437.172 475.538Z" fill="white"/>
<path fill-rule="evenodd" clip-rule="evenodd" d="M245.865 368.101C243.723 378.466 238.759 386.428 231.06 392.08C223.431 397.639 213.589 400.426 201.541 400.426C190.203 400.426 181.89 397.579 176.585 391.869C172.907 387.811 171.076 382.657 171.076 376.426C171.076 373.85 171.388 371.081 172.011 368.101L184.849 306.95H204.236L191.574 367.408C191.185 369.081 191.029 370.64 191.05 372.043C191.029 375.139 191.807 377.677 193.384 379.658C195.68 382.6 199.409 384.061 204.596 384.061C210.562 384.061 215.478 382.619 219.293 379.714C223.109 376.83 225.6 372.735 226.719 367.408L239.421 306.95H258.711L245.865 368.101Z" fill="white"/>
<path fill-rule="evenodd" clip-rule="evenodd" d="M327.289 344.043H342.472L330.578 398.618H315.424L327.289 344.043ZM332.068 324.16H347.388L344.526 337.407H329.207L332.068 324.16Z" fill="white"/>
<path fill-rule="evenodd" clip-rule="evenodd" d="M355.914 394.465C351.941 390.715 349.937 385.658 349.918 379.235C349.918 378.138 349.986 376.888 350.132 375.523C350.278 374.138 350.464 372.792 350.726 371.542C352.526 362.677 356.362 355.64 362.268 350.447C368.166 345.236 375.282 342.621 383.613 342.621C390.437 342.621 395.848 344.505 399.809 348.275C403.769 352.063 405.755 357.177 405.755 363.679C405.755 364.792 405.668 366.081 405.522 367.465C405.346 368.869 405.135 370.215 404.888 371.542C403.128 380.272 399.304 387.235 393.395 392.331C387.488 397.465 380.392 400.021 372.119 400.021C365.267 400.021 359.875 398.175 355.914 394.465ZM384.85 383.657C387.526 380.792 389.443 376.446 390.612 370.658C390.787 369.755 390.941 368.811 391.038 367.869C391.136 366.946 391.175 366.081 391.175 365.292C391.175 361.927 390.308 359.312 388.566 357.466C386.835 355.6 384.373 354.679 381.191 354.679C376.986 354.679 373.559 356.138 370.875 359.062C368.166 361.986 366.249 366.408 365.042 372.292C364.877 373.196 364.741 374.101 364.616 374.985C364.518 375.888 364.489 376.734 364.508 377.503C364.508 380.85 365.375 383.426 367.117 385.252C368.848 387.08 371.299 387.983 374.524 387.983C378.747 387.983 382.173 386.542 384.85 383.657Z" fill="white"/>
<path fill-rule="evenodd" clip-rule="evenodd" d="M504.272 437.039L507.933 424.31H526.444L525.646 428.981C525.646 428.981 535.105 424.31 541.917 424.31C548.733 424.31 564.807 424.31 564.807 424.31L561.17 437.039H557.568L540.301 497.076H543.902L540.477 508.999H536.876L535.378 514.171H517.45L518.946 508.999H483.578L487.025 497.076H490.568L507.851 437.039H504.272ZM524.244 437.039L519.533 453.287C519.533 453.287 527.593 450.232 534.542 449.366C536.077 443.692 538.083 437.039 538.083 437.039H524.244ZM517.351 460.903L512.624 477.923C512.624 477.923 521.557 473.577 527.688 473.211C529.458 466.633 531.232 460.903 531.232 460.903H517.351ZM520.815 497.076L524.359 484.731H510.542L506.98 497.076H520.815ZM565.588 423.521H582.992L583.73 429.865C583.615 431.48 584.586 432.252 586.65 432.252H589.724L586.614 443H573.822C568.938 443.25 566.426 441.406 566.193 437.423L565.588 423.521ZM560.488 446.578H616.861L613.553 458.116H595.604L592.527 468.844H610.457L607.128 480.364H587.159L582.64 487.116H592.414L594.672 500.633C594.942 501.979 596.149 502.633 598.213 502.633H601.248L598.058 513.765H587.313C581.745 514.036 578.866 512.19 578.631 508.21L576.04 495.865L567.146 508.999C565.043 512.709 561.811 514.441 557.454 514.171H541.043L544.235 503.036H549.356C551.458 503.036 553.209 502.113 554.785 500.248L568.705 480.364H550.756L554.083 468.844H573.551L576.646 458.116H557.16L560.488 446.578Z" fill="white"/>
<path fill-rule="evenodd" clip-rule="evenodd" d="M263.725 344.023H277.418L275.852 351.908L277.817 349.658C282.256 344.967 287.647 342.639 294.013 342.639C299.774 342.639 303.93 344.294 306.54 347.619C309.108 350.946 309.809 355.544 308.594 361.447L301.05 398.637H286.976L293.789 364.927C294.49 361.447 294.297 358.85 293.214 357.177C292.145 355.503 290.1 354.677 287.151 354.677C283.53 354.677 280.485 355.792 278.002 358.004C275.509 360.235 273.865 363.331 273.058 367.273L266.78 398.637H252.678L263.725 344.023Z" fill="white"/>
<path fill-rule="evenodd" clip-rule="evenodd" d="M420.761 344.023H434.466L432.91 351.908L434.853 349.658C439.296 344.967 444.706 342.639 451.052 342.639C456.815 342.639 460.979 344.294 463.566 347.619C466.12 350.946 466.857 355.544 465.612 361.447L458.097 398.637H444.005L450.819 364.927C451.518 361.447 451.325 358.85 450.253 357.177C449.143 355.503 447.138 354.677 444.201 354.677C440.579 354.677 437.543 355.792 435.031 358.004C432.539 360.235 430.886 363.331 430.109 367.273L423.801 398.637H409.717L420.761 344.023Z" fill="white"/>
<path fill-rule="evenodd" clip-rule="evenodd" d="M488.505 310.178H528.292C535.943 310.178 541.859 311.891 545.927 315.254C549.975 318.659 552.003 323.543 552.003 329.909V330.101C552.003 331.312 551.921 332.677 551.807 334.157C551.61 335.619 551.356 337.099 551.029 338.639C549.277 347.061 545.207 353.83 538.921 358.966C532.612 364.08 525.139 366.657 516.537 366.657H495.199L488.601 398.636H470.127L488.505 310.178ZM498.45 351.273H516.146C520.759 351.273 524.417 350.214 527.086 348.12C529.734 346.004 531.486 342.774 532.458 338.39C532.612 337.581 532.709 336.851 532.826 336.178C532.887 335.543 532.963 334.908 532.963 334.294C532.963 331.159 531.836 328.89 529.577 327.466C527.319 326.022 523.778 325.332 518.87 325.332H503.841L498.45 351.273Z" fill="white"/>
<path fill-rule="evenodd" clip-rule="evenodd" d="M634.689 409.196C628.849 421.463 623.283 428.615 620.016 431.942C616.741 435.232 610.261 442.885 594.65 442.308L595.994 432.943C609.13 428.943 616.237 410.924 620.285 402.945L615.459 344.178L625.62 344.043H634.146L635.061 380.908L651.041 344.043H667.217L634.689 409.196Z" fill="white"/>
<path fill-rule="evenodd" clip-rule="evenodd" d="M589.456 348.485L583.028 352.851C576.314 347.659 570.182 344.448 558.35 349.87C542.23 357.254 528.759 413.887 573.142 395.234L575.671 398.194L593.133 398.637L604.598 347.178L589.456 348.485ZM579.526 376.619C576.722 384.793 570.457 390.196 565.551 388.658C560.646 387.157 558.895 379.272 561.736 371.081C564.539 362.888 570.845 357.505 575.711 359.043C580.616 360.543 582.387 368.426 579.526 376.619Z" fill="white"/>
<path fill-rule="evenodd" clip-rule="evenodd" d="M532.612 207.074L471.646 206.954L532.264 207.212C532.379 207.212 532.495 207.074 532.612 207.074Z" fill="#E02F41"/>
<path fill-rule="evenodd" clip-rule="evenodd" d="M471.647 207.276L363.272 206.897C362.999 206.897 362.716 207.017 362.434 207.138L471.647 207.276Z" fill="#2E4F7D"/>
</svg>
