<svg width="800" height="800" viewBox="0 0 800 800" fill="none" xmlns="http://www.w3.org/2000/svg">
<path d="M296.744 505.31L332.328 296.496H389.243L353.634 505.31H296.744Z" fill="#0E4595"/>
<path d="M559.261 301C547.986 296.769 530.317 292.229 508.25 292.229C452.01 292.229 412.397 320.551 412.058 361.14C411.742 391.145 440.34 407.883 461.929 417.871C484.084 428.108 491.532 434.635 491.425 443.773C491.283 457.771 473.733 464.163 457.373 464.163C434.594 464.163 422.492 460.999 403.799 453.204L396.464 449.885L388.477 496.63C401.77 502.46 426.352 507.508 451.877 507.771C511.706 507.771 550.546 479.773 550.988 436.428C551.2 412.673 536.037 394.597 503.2 379.694C483.306 370.034 471.123 363.588 471.252 353.807C471.252 345.128 481.565 335.847 503.848 335.847C522.458 335.558 535.942 339.616 546.447 343.847L551.546 346.256L559.261 301Z" fill="#0E4595"/>
<path d="M705.723 296.495H661.745C648.12 296.495 637.924 300.214 631.941 313.811L547.414 505.174H607.18C607.18 505.174 616.951 479.444 619.161 473.794C625.692 473.794 683.753 473.884 692.053 473.884C693.755 481.195 698.978 505.174 698.978 505.174H751.791L705.723 296.495ZM635.945 431.33C640.654 419.299 658.623 372.958 658.623 372.958C658.288 373.514 663.296 360.868 666.168 353.028L670.016 371.032C670.016 371.032 680.914 420.876 683.191 431.327H635.945V431.33Z" fill="#0E4595"/>
<path d="M48.938 296.496L48.2109 300.84C70.7101 306.286 90.8051 314.169 108.398 323.975L158.901 504.975L219.119 504.909L308.723 296.496H248.43L192.709 438.892L186.773 409.952C186.495 409.058 186.193 408.163 185.884 407.265L166.513 314.125C163.069 300.903 153.077 296.957 140.715 296.496H48.938Z" fill="#0E4595"/>
</svg>
